<?xml version="1.0" encoding="UTF-8" standalone="no"?>
<svg xmlns="http://www.w3.org/2000/svg" xmlns:xlink="http://www.w3.org/1999/xlink" width="100%" height="100%" viewBox="0 0 144 144" role="img" aria-label="CloakIMG" style="fill-rule:evenodd;clip-rule:evenodd;">
    <defs>
        <linearGradient id="bg" x1="0" y1="0" x2="0" y2="1">
            <stop offset="0" stop-color="rgb(255,125,84)"/>
            <stop offset="1" stop-color="rgb(184,55,26)"/>
        </linearGradient>
        <radialGradient id="bloom" gradientUnits="userSpaceOnUse" cx="72" cy="55" r="100">
            <stop offset="0" stop-color="white" stop-opacity="0.3"/>
            <stop offset="1" stop-color="white" stop-opacity="0"/>
        </radialGradient>
        <!-- Shield + content authored in the original 144-coord space.
             Scaled at the use-site so coordinates stay readable and the
             whole mark can be retuned by changing one number. -->
        <path id="shield" d="M72,30L38,44L38,76C38,93.333 49.333,107.333 72,118C94.667,107.333 106,93.333 106,76L106,44L72,30Z"/>
        <clipPath id="shieldClip">
            <path d="M72,30L38,44L38,76C38,93.333 49.333,107.333 72,118C94.667,107.333 106,93.333 106,76L106,44L72,30Z"/>
        </clipPath>
    </defs>

    <!-- Full-bleed background so the OS launcher mask has no transparent padding to crop -->
    <rect width="144" height="144" fill="url(#bg)"/>
    <rect width="144" height="144" fill="url(#bloom)"/>

    <!-- Shield + inner content scaled 1.1× around canvas center.
         Leaves ~15% top/bottom and ~24% side breathing room so the
         shield's tip and shoulders don't get clipped by the OS
         squircle / circular launcher mask. -->
    <g transform="translate(72 72) scale(1.1) translate(-72 -72)">
        <use href="#shield" fill="white" fill-opacity="0.18"/>
        <use href="#shield" fill="none" stroke="white" stroke-opacity="0.55" stroke-width="3"/>
        <g clip-path="url(#shieldClip)">
            <circle cx="81" cy="53" r="5" fill="white"/>
            <g transform="matrix(0.962963,0,0,0.928571,1.703704,4.571429)">
                <path d="M46,92L60,70L72,84L86,64L100,92" fill="none" stroke="white" stroke-width="5" stroke-linecap="round" stroke-linejoin="round"/>
            </g>
        </g>
    </g>
</svg>
