<!-- Hallmark · asset: Open Graph · genre: modern-minimal · theme: studied-DNA (CloakPDF) · tone: technical-editorial · anchor: Signal Coral -->
<!-- Hallmark · pre-emit critique: P5 H5 E5 S5 R5 V4 · slop: pass (69/69) -->
<svg xmlns="http://www.w3.org/2000/svg" width="1200" height="630" viewBox="0 0 1200 630" role="img" aria-labelledby="title description">
  <title id="title">CloakIMG — a complete private photo workbench</title>
  <desc id="description">CloakIMG brand mark, a privacy statement, and a coastal image framed with functional editing metadata.</desc>
  <defs>
    <style>
      :root {
        --og-paper: #faf8f5;
        --og-paper-2: #f7f3ee;
        --og-surface: #fffdfb;
        --og-ink: #201b17;
        --og-ink-2: #6b655d;
        --og-rule: #d8d0c7;
        --og-rule-strong: #bdb4aa;
        --og-accent: #cb421e;
        --og-accent-bright: #f4512c;
        --og-accent-soft: #ffd6c8;
        --og-night: #201d1a;
        --og-night-ink: #faf8f5;
        --og-night-muted: #bfb9b1;
        --og-sky-top: #7d9fc0;
        --og-sky-bottom: #efc79f;
        --og-ridge-far: #6f6570;
        --og-ridge-near: #3d3c47;
        --og-water-top: #516f79;
        --og-water-bottom: #162e35;
        --og-foreground: #15272b;
        --og-mark-highlight: #ff9a76;
        --og-mark-mid: #f4512c;
        --og-mark-shadow: #c83217;
      }
      .og-display { font-family: "Archivo", "Arial Narrow", sans-serif; font-weight: 800; }
      .og-mono { font-family: "JetBrains Mono", ui-monospace, monospace; font-weight: 700; }
    </style>
    <linearGradient id="mark-fill" x1="11" y1="6" x2="51" y2="58" gradientUnits="userSpaceOnUse">
      <stop stop-color="var(--og-mark-highlight)"/>
      <stop offset=".45" stop-color="var(--og-mark-mid)"/>
      <stop offset="1" stop-color="var(--og-mark-shadow)"/>
    </linearGradient>
    <radialGradient id="mark-light" cx="0" cy="0" r="1" gradientTransform="translate(20 13) rotate(48) scale(35)">
      <stop stop-color="#fff" stop-opacity=".42"/>
      <stop offset=".58" stop-color="#fff" stop-opacity="0"/>
    </radialGradient>
    <linearGradient id="scene-sky" x1="0" y1="0" x2="0" y2="1">
      <stop stop-color="var(--og-sky-top)"/>
      <stop offset="1" stop-color="var(--og-sky-bottom)"/>
    </linearGradient>
    <linearGradient id="scene-water" x1="0" y1="0" x2="0" y2="1">
      <stop stop-color="var(--og-water-top)"/>
      <stop offset="1" stop-color="var(--og-water-bottom)"/>
    </linearGradient>
    <radialGradient id="scene-sun">
      <stop stop-color="#fff5d6"/>
      <stop offset=".45" stop-color="#ffe0b5" stop-opacity=".76"/>
      <stop offset="1" stop-color="#ffe0b5" stop-opacity="0"/>
    </radialGradient>
    <clipPath id="scene-clip">
      <rect x="700" y="178" width="434" height="292" rx="8"/>
    </clipPath>
  </defs>

  <rect width="1200" height="630" fill="var(--og-paper)"/>
  <path d="M0 0h1200v8H0z" fill="var(--og-accent)"/>

  <g transform="translate(66 43) scale(1.25)">
    <circle cx="32" cy="32" r="30" fill="url(#mark-fill)"/>
    <circle cx="32" cy="32" r="29.25" fill="url(#mark-light)" stroke="#fff" stroke-opacity=".28" stroke-width="1.5"/>
    <g stroke="#fff" stroke-width="3" stroke-linecap="round" stroke-linejoin="round" fill="none">
      <rect x="15.5" y="17.5" width="33" height="29" rx="4"/>
      <circle cx="39.5" cy="26" r="2.75"/>
      <path d="m20 41 8.2-9 6.1 6.1 5.7-7.3 8.5 10.2"/>
    </g>
  </g>

  <text class="og-display" x="163" y="96" fill="var(--og-ink)" font-size="38" letter-spacing="-1.6">Cloak<tspan fill="var(--og-accent-bright)">IMG</tspan></text>
  <text class="og-mono" x="1134" y="86" text-anchor="end" fill="var(--og-ink-2)" font-size="13" letter-spacing="1.5">CLOAKYARD / PHOTO WORKBENCH</text>

  <line x1="66" y1="134" x2="1134" y2="134" stroke="var(--og-rule)"/>

  <text class="og-display" x="66" y="239" fill="var(--og-ink)" font-size="68" letter-spacing="-2.8">
    A complete photo
  </text>
  <text class="og-display" x="66" y="313" fill="var(--og-ink)" font-size="68" letter-spacing="-2.8">
    workbench.
  </text>
  <text class="og-display" x="66" y="387" fill="var(--og-accent)" font-size="68" letter-spacing="-2.8">
    Your pixels stay put.
  </text>
  <text class="og-mono" x="68" y="443" fill="var(--og-ink-2)" font-size="12" letter-spacing="1.15">CROP · RETOUCH · REDACT · GRADE · EXPORT</text>

  <g>
    <text class="og-mono" x="700" y="162" fill="var(--og-ink-2)" font-size="11" letter-spacing=".9">LOCAL RASTER / 1600 × 1200</text>
    <text class="og-mono" x="1134" y="162" text-anchor="end" fill="var(--og-accent)" font-size="11" letter-spacing=".9">READY</text>

    <g clip-path="url(#scene-clip)">
      <rect x="700" y="178" width="434" height="292" fill="url(#scene-sky)"/>
      <circle cx="1033" cy="252" r="68" fill="url(#scene-sun)"/>
      <path d="M700 365C752 321 798 337 845 284C885 240 921 344 970 323C1021 301 1064 342 1134 307V401H700Z" fill="var(--og-ridge-far)"/>
      <path d="M700 393C755 354 793 398 850 341C903 288 925 397 981 359C1033 324 1077 395 1134 354V420H700Z" fill="var(--og-ridge-near)"/>
      <rect x="700" y="385" width="434" height="85" fill="url(#scene-water)"/>
      <path d="M700 443C763 421 805 453 867 433C930 412 984 457 1047 428C1080 413 1105 419 1134 407V470H700Z" fill="var(--og-foreground)"/>
      <g fill="none" stroke="#f5d2ac" stroke-opacity=".38" stroke-width="1.5">
        <path d="M1002 391h58"/>
        <path d="M994 400h76"/>
        <path d="M983 410h98"/>
        <path d="M972 422h120"/>
      </g>
      <path d="M720 199h34M720 199v34M1114 199h-34M1114 199v34M720 449h34M720 449v-34M1114 449h-34M1114 449v-34" fill="none" stroke="var(--og-night-ink)" stroke-width="2"/>
      <rect x="700" y="429" width="434" height="41" fill="var(--og-night)" fill-opacity=".92"/>
      <circle cx="719" cy="449.5" r="4" fill="var(--og-accent-bright)"/>
      <text class="og-mono" x="732" y="454" fill="var(--og-night-ink)" font-size="10" letter-spacing=".8">ADJUST / EXPOSURE +08 / WARMTH −04</text>
      <text class="og-mono" x="1116" y="454" text-anchor="end" fill="var(--og-night-muted)" font-size="9">LOCAL</text>
    </g>
    <rect x="700" y="178" width="434" height="292" rx="8" fill="none" stroke="var(--og-rule-strong)" stroke-width="2"/>
  </g>

  <line x1="66" y1="526" x2="1134" y2="526" stroke="var(--og-rule)"/>
  <g class="og-mono" fill="var(--og-ink)" font-size="13" letter-spacing=".7">
    <text x="66" y="565">25 EDITOR TOOLS</text>
    <text x="310" y="565">5 EXPORT FORMATS</text>
    <text x="565" y="565">0 IMAGE UPLOADS</text>
    <text x="804" y="565">ON-DEVICE AI</text>
  </g>
  <text class="og-mono" x="1134" y="565" text-anchor="end" fill="var(--og-accent)" font-size="13">IMG.CLOAKYARD.COM</text>
</svg>
